<?xml version="1.0" encoding="utf-8"?>
<!-- Generator: Adobe Illustrator 19.1.0, SVG Export Plug-In . SVG Version: 6.00 Build 0)  -->
<svg version="1.1" id="Layer_1" xmlns="http://www.w3.org/2000/svg" xmlns:xlink="http://www.w3.org/1999/xlink" x="0px" y="0px"
	 viewBox="0 0 138.9 12.6" style="enable-background:new 0 0 138.9 12.6;" xml:space="preserve">
<style type="text/css">
	.st0{fill:#FFFFFF;}
</style>
<rect x="8.5" y="9.9" class="st0" width="2.8" height="0.1"/>
<polygon class="st0" points="13.8,9.9 9.6,0 11.3,0 15.6,9.9 "/>
<path class="st0" d="M15.6,10h-1.8l0,0L9.5,0h1.8l0,0L15.6,10z M13.8,9.9h1.7L11.3,0H9.6L13.8,9.9z"/>
<rect x="13.2" y="9.9" class="st0" width="2.8" height="0.1"/>
<rect x="4.7" y="9.9" class="st0" width="2.8" height="0.1"/>
<rect x="8.1" y="-0.4" transform="matrix(0.9214 0.3886 -0.3886 0.9214 2.5799 -2.7974)" class="st0" width="0.1" height="10.8"/>
<polygon class="st0" points="18.5,9.9 14.3,0 16,0 20.3,9.9 "/>
<path class="st0" d="M20.3,10h-1.8l0,0L14.2,0H16l0,0L20.3,10z M18.5,9.9h1.7L16,0h-1.7L18.5,9.9z"/>
<rect x="17.9" y="9.9" class="st0" width="2.8" height="0.1"/>
<rect x="9.5" y="9.9" class="st0" width="2.2" height="0.1"/>
<rect x="12.8" y="-0.4" transform="matrix(0.9225 0.386 -0.386 0.9225 2.9218 -4.5956)" class="st0" width="0.1" height="10.8"/>
<polygon class="st0" points="9.1,9.9 4.8,0 6.6,0 10.8,9.9 "/>
<path class="st0" d="M10.8,10H9.1l0,0L4.8,0h1.8l0,0L10.8,10z M9.1,9.9h1.7L6.6,0H4.8L9.1,9.9z"/>
<rect y="9.9" class="st0" width="2.8" height="0.1"/>
<rect x="3.4" y="-0.4" transform="matrix(0.9225 0.386 -0.386 0.9225 2.1894 -0.9478)" class="st0" width="0.1" height="10.8"/>
<rect x="2.9" y="6.2" class="st0" width="5.2" height="0.1"/>
<path class="st0" d="M26,9.3c-1,0-1.7-0.7-1.7-1.8c0-1.5,1.3-2.9,2.7-2.9c1,0,1.7,0.7,1.7,1.8C28.8,7.9,27.5,9.3,26,9.3 M27.1,4.8
	c-0.7,0-1,0.3-1.3,0.8c-0.2,0.4-0.7,1.9-0.7,2.5c0,0.5,0.2,1,1,1c0.7,0,1-0.3,1.3-0.8C27.6,7.9,28,6.4,28,5.9
	C28,5.4,27.9,4.8,27.1,4.8"/>
<path class="st0" d="M33.1,8.4c-0.1,0.3,0,0.5,0.2,0.5c0.3,0,0.6-0.2,0.9-0.7l0.2,0.1C34,9,33.4,9.3,33,9.3c-0.6,0-0.8-0.4-0.7-1.1
	c-0.3,0.6-0.8,1.1-1.3,1.1c-1,0-1.4-0.8-1.4-1.7c0-1.4,1.3-3,3-3c0.3,0,0.7,0.2,0.8,0.5l1.1-3.4c0,0,0,0-0.1,0l-0.6,0
	c0,0,0.1-0.2,0.1-0.2l1.5,0c0,0,0,0,0,0L33.1,8.4z M32.5,4.8c-0.4,0-0.6,0.1-0.9,0.3c-0.8,0.6-1.3,2.1-1.3,3c0,0.6,0.2,0.9,0.8,0.9
	c0.6,0,1.2-0.9,1.6-2l0.5-1.5C33.2,5.1,32.9,4.8,32.5,4.8"/>
<path class="st0" d="M36.7,9.3c-0.7,0-1.1-0.3-1.1-1.1c0-0.8,0.8-1.9,0.8-2.8C36.3,5.1,36.2,5,36,5c-0.2,0-0.4,0.2-0.6,0.6l-0.2-0.1
	c0.3-0.7,0.9-0.9,1.2-0.9c0.5,0,0.7,0.3,0.7,0.9c0,1-0.8,2-0.8,2.8c0,0.6,0.2,0.7,0.5,0.7C37.7,9,39,7.4,39,6.2
	c0-0.6-0.2-0.7-0.2-1.1c0-0.3,0.1-0.5,0.4-0.5c0.3,0,0.5,0.3,0.5,0.6C39.6,6.9,37.9,9.3,36.7,9.3"/>
<path class="st0" d="M41.4,7h-0.6c-0.1,0.5-0.2,0.7-0.2,1.1c0,0.5,0.2,1,1,1c0.7,0,1.2-0.3,1.6-0.9l0.1,0.2c-0.5,0.6-1,0.9-1.8,0.9
	c-1,0-1.7-0.7-1.7-1.8c0-1.5,1.3-2.9,2.7-2.9c0.9,0,1.2,0.5,1.2,0.9C43.8,6.3,42.9,7,41.4,7 M42.6,4.8c-0.9,0-1.3,0.7-1.7,2h0.5
	c1.3,0,1.7-0.8,1.7-1.5C43.1,5,42.9,4.8,42.6,4.8"/>
<path class="st0" d="M47.1,4.8h-0.8l-1.2,3.7c0,0.2,0,0.3,0.2,0.3c0.3,0,0.6-0.2,0.9-0.7l0.2,0.1c-0.4,0.8-1,1.1-1.4,1.1
	c-0.7,0-0.9-0.4-0.6-1.3l1-3.2h-0.8c0,0,0-0.2,0.1-0.2h0.8L46,3.1l0.9-0.1l-0.5,1.6h0.8C47.2,4.6,47.2,4.8,47.1,4.8"/>
<path class="st0" d="M51.1,9.3c-0.6,0-0.9-0.3-0.9-0.8c0-0.8,0.9-1.9,0.9-2.9c0-0.3-0.2-0.4-0.5-0.4c-0.4,0-1.1,0.6-1.8,1.7
	l-0.7,2.2h-0.8l1.2-3.7c0.1-0.3,0-0.5-0.2-0.5c-0.2,0-0.4,0.2-0.6,0.6l-0.2-0.1c0.3-0.7,0.9-0.9,1.2-0.9c0.7,0,0.8,0.5,0.4,1.7
	c0.6-1.1,1.6-1.7,2.2-1.7c0.3,0,0.7,0.2,0.7,0.8c0,0.9-0.9,2.3-0.9,3c0,0.2,0.1,0.4,0.3,0.4c0.3,0,0.6-0.2,0.9-0.7l0.2,0.1
	C52.2,9,51.5,9.3,51.1,9.3"/>
<path class="st0" d="M54.1,9.3c-0.6,0-0.8-0.3-0.8-0.8c0-0.8,1-2.3,1-3.2C54.3,5.1,54.2,5,54,5c-0.2,0-0.4,0.2-0.6,0.6l-0.2-0.1
	c0.3-0.7,0.8-0.9,1.1-0.9c0.6,0,0.7,0.3,0.7,0.8c0,1.1-1,2.4-1,3.1c0,0.2,0.1,0.4,0.3,0.4c0.3,0,0.6-0.2,0.9-0.7l0.2,0.1
	C55.1,9,54.5,9.3,54.1,9.3 M55.1,3c-0.3,0-0.5-0.2-0.5-0.5c0-0.3,0.2-0.5,0.5-0.5c0.3,0,0.5,0.2,0.5,0.5C55.7,2.8,55.4,3,55.1,3"/>
<path class="st0" d="M59.5,6.1c-0.3,0-0.4-0.2-0.4-0.4c0-0.3,0.2-0.3,0.2-0.6c0-0.2-0.2-0.3-0.5-0.3c-0.7,0-0.9,0.3-1.2,0.8
	c-0.2,0.4-0.7,1.9-0.7,2.5c0,0.5,0.2,1,0.9,1c0.8,0,1.3-0.4,1.7-1l0.2,0.1c-0.5,0.7-1.2,1.1-1.9,1.1c-1,0-1.7-0.7-1.7-1.8
	c0-1.5,1.2-2.9,2.6-2.9c0.8,0,1.3,0.6,1.3,1C60,6,59.8,6.1,59.5,6.1"/>
<path class="st0" d="M64,9.3c-0.5,0-0.9-0.4-0.7-0.9C63,9,62.6,9.3,61.9,9.3c-1,0-1.4-0.8-1.4-1.7c0-1.4,1.3-3,2.9-3
	c0.3,0,0.7,0.2,0.8,0.5l0.2-0.4l0.8-0.2l-1.2,3.8c-0.1,0.3,0,0.5,0.2,0.5c0.3,0,0.7-0.3,0.9-0.7l0.2,0.1C65,9,64.4,9.3,64,9.3
	 M63.5,4.8c-0.4,0-0.6,0.1-0.9,0.3c-0.8,0.6-1.3,2.1-1.3,3c0,0.5,0.2,0.9,0.8,0.9c0.6,0,1-0.5,1.5-1.8l0.5-1.7
	C64.1,5.1,63.9,4.8,63.5,4.8"/>
<path class="st0" d="M71.9,9.2c0,0,0-0.2,0-0.2h1c0,0,0.1,0,0,0l-0.9-2.3h-2.6l-0.7,1.9C68.6,9,68.6,9,68.6,9h1c0,0,0,0.2,0,0.2
	h-2.2c0,0,0-0.2,0-0.2h0.9c0.1,0,0.1,0,0.3-0.4l2.6-7c0,0,0.2,0,0.2,0L74.3,9c0,0,0,0,0.1,0h1c0,0,0,0.2,0,0.2H71.9z M70.8,3.1
	l-1.3,3.4H72L70.8,3.1z"/>
<path class="st0" d="M78.6,9.2c0,0,0-0.2,0-0.2h0.6c0,0,0.1,0,0.1,0V5.9c0-0.7-0.5-1.1-0.8-1.1c-0.7,0-1,0.3-1.2,1V9c0,0,0,0,0.1,0
	h0.6c0,0,0,0.2,0,0.2h-2.2c0,0,0-0.2,0-0.2h0.6c0,0,0.1,0,0.1,0V4.9c0,0,0,0-0.1,0h-0.6c0,0,0-0.2,0-0.2h1.5c0,0,0,0,0,0v0.7
	c0.2-0.6,0.7-0.8,1.2-0.8c1.1,0,1.8,0.6,1.8,1.8V9c0,0,0,0,0.1,0h0.6c0,0,0,0.2,0,0.2H78.6z"/>
<path class="st0" d="M84.6,9.2C84.5,9.2,84.5,9.2,84.6,9.2l0-0.5c-0.1,0.2-0.4,0.6-1.1,0.6c-1.2,0-2.1-1.2-2.1-2.3
	c0-1.2,1-2.4,2.2-2.4c0.4,0,0.7,0.2,1,0.4V1.6c0,0,0,0-0.1,0h-0.6c0,0,0-0.2,0-0.2h1.5c0,0,0,0,0,0V9c0,0,0,0,0.1,0h0.6
	c0,0,0,0.2,0,0.2H84.6z M84.5,5.3c-0.1-0.4-0.6-0.6-1-0.6c-0.3,0-0.6,0.1-0.8,0.2c-0.4,0.3-0.5,1-0.5,2c0,1,0.2,1.6,0.5,1.9
	c0.2,0.2,0.4,0.2,0.7,0.2c0.8,0,1.1-0.5,1.1-0.9V5.3z"/>
<path class="st0" d="M89.8,6c-0.3,0-0.5-0.2-0.5-0.4c0-0.2,0.1-0.3,0.1-0.4c0-0.2-0.1-0.3-0.3-0.3c-0.3,0-0.6,0.2-0.8,1V9
	c0,0,0,0,0.1,0H89c0,0,0,0.2,0,0.2h-2.2c0,0,0-0.2,0-0.2h0.6c0.1,0,0.1,0,0.1,0V4.9c0,0,0,0-0.1,0h-0.6c0,0,0-0.2,0-0.2h1.5
	c0,0,0,0,0,0v0.7c0.2-0.6,0.5-0.8,1.1-0.8c0.5,0,0.8,0.4,0.8,0.8C90.3,5.8,90,6,89.8,6"/>
<path class="st0" d="M94.9,6.7h-3.1c0,0.1,0,0.2,0,0.2c0,1.2,0.1,1.7,0.4,2c0.2,0.2,0.5,0.2,0.8,0.2c0.8,0,1.3-0.4,1.7-0.9
	c0,0,0.1,0.1,0.1,0.1c-0.4,0.6-1,1-1.8,1c-1.2,0-2.2-1.1-2.2-2.4c0-1.3,0.9-2.4,2.2-2.4C94.4,4.6,95,5.9,94.9,6.7
	C95,6.7,95,6.7,94.9,6.7 M93.7,5c-0.2-0.2-0.4-0.2-0.6-0.2c-0.3,0-0.5,0.1-0.8,0.2c-0.3,0.3-0.4,0.7-0.4,1.5h2.2
	C94,5.7,94,5.3,93.7,5"/>
<path class="st0" d="M95.5,12.6c-0.5,0-0.9-0.4-0.9-0.8c0-0.3,0.2-0.5,0.5-0.5c0.3,0,0.5,0.2,0.5,0.4c0,0.2-0.1,0.2-0.1,0.5
	c0,0.2,0.1,0.3,0.4,0.3c0.3,0,0.5-0.3,0.5-1.3V4.9c0,0,0,0-0.1,0h-0.6c0,0,0-0.2,0-0.2h1.5c0,0,0,0,0,0v4.7
	C97.1,11.8,96.5,12.6,95.5,12.6 M96.7,2.7c-0.3,0-0.6-0.3-0.6-0.6c0-0.3,0.3-0.6,0.6-0.6c0.3,0,0.6,0.3,0.6,0.6
	C97.3,2.5,97,2.7,96.7,2.7"/>
<path class="st0" d="M101.8,9.3c-0.5,0-0.8-0.4-0.8-0.8c-0.2,0.4-0.6,0.8-1.2,0.8c-0.7,0-1.4-0.3-1.4-1.1c0-1.1,1-1.3,1.4-1.3
	c0.6-0.1,1.2-0.1,1.2-0.3V5.7c0-0.8-0.4-1-0.8-1c-0.3,0-0.5,0.1-0.5,0.4c0,0.2,0.1,0.2,0.1,0.4c0,0.2-0.1,0.4-0.5,0.4
	c-0.3,0-0.4-0.3-0.4-0.5c0-0.4,0.5-0.8,1.3-0.8c1.1,0,1.7,0.6,1.7,1.9v2.2c0,0.3,0.1,0.4,0.2,0.4c0.2,0,0.3-0.1,0.4-0.2
	c0,0,0.1,0.1,0.1,0.1C102.5,9.1,102.2,9.3,101.8,9.3 M100.9,6.8c-0.2,0.2-0.7,0.2-1,0.2c-0.4,0.1-0.7,0.2-0.7,1.2
	c0,0.6,0.3,0.9,0.7,0.9c0.6,0,1-0.6,1-1V6.8z"/>
<path class="st0" d="M110.3,9.2c0,0,0-0.2,0-0.2h0.9c0,0,0.1,0,0.1,0V2.2L109,9.4c0,0-0.2,0-0.2,0l-2.6-7.2V9c0,0,0,0,0,0h0.9
	c0,0,0,0.2,0,0.2h-2.1c0,0,0-0.2,0-0.2h0.9c0,0,0.1,0,0.1,0V1.9c0,0,0,0-0.1,0h-0.9c0,0,0-0.2,0-0.2h2.1c0.1,0,0.1,0.1,0.2,0.2
	l2,5.6l1.8-5.6c0-0.1,0.1-0.2,0.1-0.2h2.1c0,0,0,0.2,0,0.2h-0.9c0,0-0.1,0-0.1,0V9c0,0,0,0,0.1,0h0.9c0,0,0,0.2,0,0.2H110.3z"/>
<path class="st0" d="M118.1,6.7H115c0,0.1,0,0.2,0,0.2c0,1.2,0.1,1.7,0.4,2c0.2,0.2,0.5,0.2,0.8,0.2c0.8,0,1.3-0.4,1.7-0.9
	c0,0,0.1,0.1,0.1,0.1c-0.4,0.6-1,1-1.8,1C115,9.3,114,8.3,114,7c0-1.3,0.9-2.4,2.2-2.4C117.6,4.6,118.1,5.9,118.1,6.7
	C118.1,6.7,118.1,6.7,118.1,6.7 M116.8,5c-0.2-0.2-0.4-0.2-0.6-0.2c-0.3,0-0.6,0.1-0.8,0.2c-0.3,0.3-0.4,0.7-0.4,1.5h2.2
	C117.2,5.7,117.1,5.3,116.8,5"/>
<path class="st0" d="M122.2,9.2C122.2,9.2,122.2,9.2,122.2,9.2l0-0.5c-0.1,0.2-0.4,0.6-1.1,0.6c-1.2,0-2.1-1.2-2.1-2.3
	c0-1.2,1-2.4,2.2-2.4c0.4,0,0.7,0.2,1,0.4V1.6c0,0,0,0-0.1,0h-0.6c0,0,0-0.2,0-0.2h1.5c0,0,0,0,0,0V9c0,0,0,0,0.1,0h0.6
	c0,0,0,0.2,0,0.2H122.2z M122.2,5.3c-0.1-0.4-0.6-0.6-1-0.6c-0.3,0-0.6,0.1-0.8,0.2c-0.4,0.3-0.5,1-0.5,2c0,1,0.2,1.6,0.5,1.9
	c0.2,0.2,0.4,0.2,0.7,0.2c0.8,0,1.1-0.5,1.1-0.9V5.3z"/>
<path class="st0" d="M128.5,4.9c-0.1,0-0.1,0-0.3,0.4l-1.5,4c0,0-0.2,0-0.2,0l-2-4.4c0,0,0,0-0.1,0h-0.6c0,0,0-0.2,0-0.2h2.3
	c0,0,0,0.2,0,0.2h-0.6c0,0-0.1,0-0.1,0l1.4,3.4l1.1-2.9c0.2-0.4,0.1-0.4,0.1-0.4h-0.6c0,0,0-0.2,0-0.2h1.5c0,0,0,0.2,0,0.2H128.5z"
	/>
<path class="st0" d="M133.2,6.7h-3.1c0,0.1,0,0.2,0,0.2c0,1.2,0.1,1.7,0.4,2c0.2,0.2,0.5,0.2,0.8,0.2c0.8,0,1.3-0.4,1.7-0.9
	c0,0,0.1,0.1,0.1,0.1c-0.4,0.6-1,1-1.8,1c-1.2,0-2.2-1.1-2.2-2.4c0-1.3,0.9-2.4,2.2-2.4C132.7,4.6,133.3,5.9,133.2,6.7
	C133.3,6.7,133.3,6.7,133.2,6.7 M132,5c-0.2-0.2-0.4-0.2-0.6-0.2c-0.3,0-0.6,0.1-0.8,0.2c-0.3,0.3-0.4,0.7-0.4,1.5h2.2
	C132.3,5.7,132.3,5.3,132,5"/>
<path class="st0" d="M137.4,9.2C137.4,9.2,137.3,9.2,137.4,9.2l0-0.5c-0.1,0.2-0.4,0.6-1.1,0.6c-1.2,0-2.1-1.2-2.1-2.3
	c0-1.2,1-2.4,2.2-2.4c0.4,0,0.7,0.2,1,0.4V1.6c0,0,0,0-0.1,0h-0.6c0,0,0-0.2,0-0.2h1.5c0,0,0,0,0,0V9c0,0,0,0,0.1,0h0.6
	c0,0,0,0.2,0,0.2H137.4z M137.3,5.3c-0.1-0.4-0.6-0.6-1-0.6c-0.3,0-0.6,0.1-0.8,0.2c-0.4,0.3-0.5,1-0.5,2c0,1,0.2,1.6,0.5,1.9
	c0.2,0.2,0.4,0.2,0.7,0.2c0.8,0,1.1-0.5,1.1-0.9V5.3z"/>
</svg>
